<?xml version="1.0" encoding="UTF-8" standalone="no"?>
<!-- Created with Inkscape (http://www.inkscape.org/) -->

<svg
   xmlns:dc="http://purl.org/dc/elements/1.1/"
   xmlns:cc="http://creativecommons.org/ns#"
   xmlns:rdf="http://www.w3.org/1999/02/22-rdf-syntax-ns#"
   xmlns:svg="http://www.w3.org/2000/svg"
   xmlns="http://www.w3.org/2000/svg"
   xmlns:sodipodi="http://sodipodi.sourceforge.net/DTD/sodipodi-0.dtd"
   xmlns:inkscape="http://www.inkscape.org/namespaces/inkscape"
   width="24"
   height="24"
   viewBox="0 0 6.35 6.35"
   version="1.1"
   id="svg8"
   inkscape:version="0.92.4 (5da689c313, 2019-01-14)"
   sodipodi:docname="github-icon.svg">
  <defs
     id="defs2" />
  <sodipodi:namedview
     id="base"
     pagecolor="#ffffff"
     bordercolor="#666666"
     borderopacity="1.0"
     inkscape:pageopacity="0"
     inkscape:pageshadow="2"
     inkscape:zoom="22.4"
     inkscape:cx="7.4320199"
     inkscape:cy="11.100519"
     inkscape:document-units="mm"
     inkscape:current-layer="layer1"
     showgrid="false"
     units="px"
     inkscape:pagecheckerboard="true"
     inkscape:window-width="1920"
     inkscape:window-height="1001"
     inkscape:window-x="-9"
     inkscape:window-y="-9"
     inkscape:window-maximized="1" />
  <metadata
     id="metadata5">
    <rdf:RDF>
      <cc:Work
         rdf:about="">
        <dc:format>image/svg+xml</dc:format>
        <dc:type
           rdf:resource="http://purl.org/dc/dcmitype/StillImage" />
        <dc:title />
      </cc:Work>
    </rdf:RDF>
  </metadata>
  <g
     inkscape:label="Camada 1"
     inkscape:groupmode="layer"
     id="layer1"
     transform="translate(0,-290.64998)">
    <path
       style="fill:#483d8b;fill-opacity:1;stroke-width:0.01064456"
       d="m 2.0872696,296.87008 c -0.317971,-0.1164 -0.6273062,-0.29089 -0.9011897,-0.50834 -0.1396049,-0.11084 -0.3718389,-0.34331 -0.48756501,-0.48806 -0.90966444,-1.13777 -0.93309334,-2.73721 -0.0571207,-3.89948 0.47156691,-0.6257 1.14688451,-1.04919 1.91955851,-1.20376 0.2269439,-0.0455 0.320602,-0.0535 0.6173847,-0.0534 0.2102609,8e-5 0.3159583,0.005 0.4151379,0.0188 0.8575435,0.11998 1.6072283,0.56004 2.1259334,1.24791 0.346141,0.45903 0.5614485,1.01823 0.6200935,1.61053 0.01394,0.14081 0.01401,0.43072 1.31e-4,0.58165 -0.09097,0.98939 -0.648497,1.88884 -1.4954219,2.41253 -0.253462,0.15672 -0.6173165,0.31784 -0.7177111,0.31779 -0.048217,-2e-5 -0.1046807,-0.0285 -0.1330974,-0.0673 -0.021448,-0.0292 -0.022207,-0.0452 -0.027998,-0.59078 -0.00529,-0.49827 -0.00811,-0.56845 -0.025332,-0.62993 -0.02878,-0.10274 -0.075619,-0.20002 -0.1290891,-0.26809 l -0.047543,-0.0606 0.050735,-0.007 c 0.853003,-0.11327 1.2721428,-0.49643 1.3716823,-1.25392 0.023655,-0.18004 0.015785,-0.4871 -0.01567,-0.61129 -0.046535,-0.18372 -0.1257525,-0.34615 -0.2355288,-0.48293 -0.03907,-0.0487 -0.052639,-0.0738 -0.0482,-0.0892 0.048745,-0.16936 0.063071,-0.30412 0.04789,-0.45051 -0.01238,-0.11937 -0.04439,-0.26186 -0.073722,-0.32818 l -0.020545,-0.0464 h -0.07394 c -0.173696,0 -0.437901,0.1022 -0.7096276,0.2745 l -0.085156,0.054 -0.085157,-0.0204 c -0.3041537,-0.0729 -0.6670792,-0.10075 -0.9580108,-0.0737 -0.1458823,0.0136 -0.3571951,0.0473 -0.4653203,0.0742 l -0.082116,0.0204 -0.099167,-0.0623 c -0.153212,-0.0963 -0.3191488,-0.17779 -0.4488025,-0.22041 -0.1018927,-0.0335 -0.132579,-0.0389 -0.2239093,-0.0399 l -0.1058346,-5e-4 -0.028859,0.0905 c -0.069784,0.21878 -0.08013,0.45555 -0.028668,0.65608 l 0.024954,0.0973 -0.03079,0.0358 c -0.059138,0.0688 -0.1502135,0.21698 -0.1886775,0.307 -0.094497,0.22115 -0.1219653,0.43474 -0.09449,0.73473 0.027637,0.30175 0.1073702,0.54995 0.2427848,0.75576 0.1018045,0.15473 0.3006252,0.31932 0.493859,0.40883 0.1633271,0.0756 0.3949773,0.14043 0.5965476,0.1668 l 0.1019027,0.0134 -0.043058,0.0488 c -0.06701,0.0759 -0.1196843,0.19532 -0.1521071,0.3447 -0.019132,0.0881 -0.3855919,0.14244 -0.5593165,0.0829 -0.086749,-0.0298 -0.1867999,-0.0939 -0.2473488,-0.15866 -0.025615,-0.0274 -0.077051,-0.0953 -0.1143018,-0.15091 -0.1214696,-0.18137 -0.26438,-0.29157 -0.4204193,-0.32422 -0.10831967,-0.0226 -0.21851909,0.002 -0.21851909,0.0473 0,0.0295 0.059562,0.0934 0.12773472,0.13691 0.0747144,0.0478 0.16454037,0.13767 0.22146867,0.22181 0.024522,0.0362 0.07766,0.13459 0.1180848,0.21854 0.067979,0.14116 0.079529,0.15835 0.1537883,0.22889 0.086468,0.0821 0.200916,0.14609 0.3209674,0.17935 0.094382,0.0262 0.3657434,0.0323 0.4945581,0.0113 0.05539,-0.009 0.1016115,-0.0155 0.1027142,-0.0143 0.0011,5e-4 0.00368,0.1435 0.00573,0.3162 0.00357,0.30011 0.00277,0.31567 -0.01792,0.35128 -0.026387,0.0454 -0.080965,0.0746 -0.1380171,0.074 -0.023419,-2.9e-4 -0.085689,-0.0163 -0.1383793,-0.0356 z m -0.055907,-0.93027 c -0.0362,-0.006 -0.051455,-0.0416 -0.028448,-0.067 0.033962,-0.0376 0.1216112,-0.0181 0.1216112,0.0269 0,0.0275 -0.046272,0.0473 -0.093163,0.0401 z m 0.2235591,-0.0346 c -0.030728,-0.0123 -0.030877,-0.0469 -2.927e-4,-0.0683 0.050061,-0.0351 0.1276078,-0.007 0.103812,0.0371 -0.020317,0.038 -0.058167,0.0493 -0.1035193,0.0311 z m -0.4997009,-0.0256 c -0.024553,-0.0214 -0.027782,-0.0294 -0.018148,-0.0452 0.023035,-0.0379 0.097169,-0.0272 0.1210738,0.0175 0.00815,0.0152 0.00668,0.0245 -0.00584,0.037 -0.024205,0.0242 -0.062832,0.0206 -0.097087,-0.009 z m -0.1838906,-0.10476 c -0.014459,-0.007 -0.033574,-0.0263 -0.042477,-0.0421 -0.014722,-0.0262 -0.014526,-0.0304 0.00218,-0.0472 0.014453,-0.0145 0.024552,-0.0162 0.04747,-0.008 0.038037,0.0134 0.066027,0.0614 0.050298,0.0864 -0.015473,0.0245 -0.026569,0.0267 -0.057462,0.0111 z m -0.1805066,-0.20601 c -0.012134,-0.0154 -0.022062,-0.0336 -0.022062,-0.0405 0,-0.0166 0.022189,-0.038 0.039385,-0.038 0.024807,0 0.056416,0.0418 0.056416,0.0745 0,0.0267 -0.00422,0.0319 -0.025839,0.0319 -0.015235,0 -0.034892,-0.0114 -0.047901,-0.028 z m -0.1224248,-0.16965 c -0.0092,-0.009 -0.016728,-0.0284 -0.016728,-0.0426 0,-0.0201 0.00563,-0.0258 0.024961,-0.0258 0.030414,0 0.060195,0.0307 0.060195,0.062 0,0.0283 -0.042596,0.0323 -0.068429,0.007 z m -0.1343034,-0.13281 c -0.020046,-0.02 -0.021076,-0.0251 -0.00782,-0.0383 0.023476,-0.0235 0.074783,-5e-4 0.070251,0.0307 -0.00459,0.0322 -0.034247,0.0358 -0.062431,0.008 z"
       id="path43"
       inkscape:connector-curvature="0" />
  </g>
</svg>
